# xmcd
#
# Track frame offsets: 
#        150
#        16567
#        33681
#        53325
#        70642
#        84379
#        105980
#        121417
#        136164
#        157152
#        169788
#        187022
#        205067
#        222517
#        240991
#
# Disc length: 3418 seconds
#
# Revision: 0
# Processed by: cddbd v1.5.2PL0 Copyright (c) Steve Scherf et al.
# Submitted via: ExactAudioCopy v1.0b3
#
DISCID=be0d580f
DTITLE=谭咏麟 - 拥抱
DYEAR=2001
DGENRE=Folk
TTITLE0=反斗星
TTITLE1=爱到你发狂
TTITLE2=拥抱
TTITLE3=80岁后
TTITLE4=风中劲草
TTITLE5=旧信纸
TTITLE6=命运赌注
TTITLE7=火一般眼波
TTITLE8=欠了你
TTITLE9=愿你接受
TTITLE10=情不变
TTITLE11=样样做到好
TTITLE12=千年埋藏
TTITLE13=第一滴泪
TTITLE14=爱在阳光空气中
EXTD=
EXTT0=
EXTT1=
EXTT2=
EXTT3=
EXTT4=
EXTT5=
EXTT6=
EXTT7=
EXTT8=
EXTT9=
EXTT10=
EXTT11=
EXTT12=
EXTT13=
EXTT14=
PLAYORDER=
